<svg width="16" height="16" viewBox="0 0 16 16" fill="none" xmlns="http://www.w3.org/2000/svg">
<g clip-path="url(#clip0_2045_181)">
<path fill-rule="evenodd" clip-rule="evenodd" d="M3.5 2C2.67157 2 2 2.67157 2 3.5V12.5C2 13.3284 2.67157 14 3.5 14H12.5C13.3284 14 14 13.3284 14 12.5V8C14 7.58579 14.3358 7.25 14.75 7.25C15.1642 7.25 15.5 7.58579 15.5 8V12.5C15.5 14.1569 14.1569 15.5 12.5 15.5H3.5C1.84315 15.5 0.5 14.1569 0.5 12.5V3.5C0.5 1.84315 1.84315 0.5 3.5 0.5H12.7908C14.287 0.5 15.5 1.71297 15.5 3.20924C15.5 3.91073 15.2279 4.58487 14.741 5.08982L8.7166 11.3373C8.3283 11.74 7.6852 11.7459 7.28965 11.3503L3.96967 8.03033C3.67678 7.73744 3.67678 7.26256 3.96967 6.96967C4.26256 6.67678 4.73744 6.67678 5.03033 6.96967L7.99027 9.92961L13.6612 4.04862C13.8786 3.82324 14 3.52234 14 3.20924C14 2.5414 13.4586 2 12.7908 2H3.5Z" fill="#C5C5C5"/>
</g>
<defs>
<clipPath id="clip0_2045_181">
<rect width="16" height="16" fill="white"/>
</clipPath>
</defs>
</svg>
