<svg width="36" height="36" viewBox="0 0 36 36" fill="none" xmlns="http://www.w3.org/2000/svg">
<rect width="36" height="36" rx="8" fill="white" fill-opacity="0.11"/>
<path fill-rule="evenodd" clip-rule="evenodd" d="M24.5 16.3593V15.0931L22.6744 16.9454C22.0314 17.5977 20.9802 17.6015 20.3325 16.9538L19.0462 15.6675C18.3985 15.0199 18.4023 13.9687 19.0546 13.3257L20.9067 11.5H19.6417C19.6172 11.5165 19.5932 11.5348 19.573 11.5516C19.5592 11.5631 19.5501 11.5713 19.5471 11.574L19.5411 11.5799C19.4906 11.629 19.0496 12.0583 18.5951 12.5073C18.3674 12.7323 18.1396 12.9589 17.9568 13.1441C17.8651 13.2369 17.7884 13.3157 17.7302 13.3768C17.6758 13.4339 17.6554 13.457 17.6552 13.4569C17.6552 13.4568 17.6566 13.4552 17.6591 13.4521C17.6162 13.5043 17.5753 13.5515 17.5443 13.5871C17.5348 13.5979 17.5265 13.6074 17.519 13.6159C17.5121 13.6239 17.5059 13.631 17.5 13.6377V16C17.5 16.1496 17.4969 16.4382 17.4546 16.739C17.4335 16.8896 17.3972 17.0843 17.3282 17.2869C17.2657 17.4705 17.1357 17.7845 16.8575 18.0627L11.8657 23.0545C11.6036 23.3165 11.512 23.5754 11.5012 23.7557C11.4917 23.9141 11.5359 24.0897 11.7233 24.2771L10.6626 25.3377C9.68937 24.3645 9.8318 22.967 10.805 21.9938L15.7968 17.0021C15.9857 16.8132 16 16.2671 16 16V13.5C16 13.0745 16.197 12.8491 16.394 12.6238C16.4297 12.5829 16.4654 12.5421 16.5 12.5C16.7181 12.2344 18.3925 10.6046 18.4951 10.5048L18.5048 10.4953C18.5571 10.4446 19.0285 10 19.5 10H22.6201C23.2147 10 23.5729 10.659 23.2494 11.1579L23.2375 11.1763C23.0796 11.4199 22.8957 11.6455 22.689 11.8493L20.1076 14.3939C20.0483 14.4524 20.048 14.548 20.1068 14.6068L21.3932 15.8932C21.452 15.952 21.5476 15.9517 21.6061 15.8924L24.3036 13.1556C24.4055 13.0522 24.5184 12.9602 24.6403 12.8812L24.8421 12.7504C25.3411 12.427 26 12.7852 26 13.3798V16.5C26 17.0027 25.5 17.5 25.5 17.5L23.4994 19.5006C23.4793 19.5206 22.9922 20 22.5 20H20C19.7329 20 19.1864 20.0139 18.9975 20.2028L14.0057 25.1945C13.0325 26.1677 11.6359 26.311 10.6626 25.3377L11.7233 24.2771C11.9106 24.4644 12.0857 24.5083 12.2437 24.4988C12.4237 24.4879 12.6827 24.3963 12.9451 24.1338L17.9369 19.1421C18.2154 18.8636 18.5299 18.7336 18.7136 18.6712C18.9162 18.6023 19.1111 18.5661 19.2616 18.545C19.5624 18.5029 19.8511 18.5 20 18.5H22.3593C22.3868 18.4814 22.4127 18.461 22.4325 18.4442C22.4401 18.4377 22.4457 18.4327 22.4488 18.4299L24.4299 16.4487C24.4323 16.4461 24.4361 16.4418 24.4411 16.4361C24.4578 16.4166 24.4798 16.3892 24.5 16.3593Z" fill="#929292"/>
</svg>
