<svg width="36" height="36" viewBox="0 0 36 36" fill="none" xmlns="http://www.w3.org/2000/svg">
<rect width="36" height="36" rx="8" fill="white" fill-opacity="0.11"/>
<g clip-path="url(#clip0_2134_34)">
<path fill-rule="evenodd" clip-rule="evenodd" d="M10 18C10 13.5817 13.5817 10 18 10C22.4183 10 26 13.5817 26 18C26 22.4183 22.4183 26 18 26C13.5817 26 10 22.4183 10 18ZM14.7598 17.25H11.5952C11.8816 14.7777 13.5664 12.7316 15.8382 11.9233C15.2737 12.9616 14.8302 14.6122 14.7598 17.25ZM18 11.7598C18.0192 11.766 18.0439 11.7752 18.0735 11.789C18.1861 11.8416 18.3992 11.9742 18.6397 12.3109C19.0954 12.9489 19.657 14.334 19.7397 17.25H16.2603C16.343 14.334 16.9046 12.9489 17.3603 12.3109C17.6008 11.9742 17.8139 11.8416 17.9265 11.789C17.956 11.7752 17.9808 11.766 18 11.7598ZM14.7598 18.75C14.8302 21.3878 15.2737 23.0384 15.8383 24.0767C13.5665 23.2684 11.8816 21.2223 11.5952 18.75H14.7598ZM18 24.2402C17.9808 24.234 17.9561 24.2248 17.9265 24.211C17.8139 24.1584 17.6008 24.0258 17.3603 23.6891C16.9046 23.0511 16.343 21.666 16.2603 18.75H19.7397C19.657 21.666 19.0954 23.0511 18.6397 23.6891C18.3992 24.0258 18.1861 24.1584 18.0735 24.211C18.044 24.2248 18.0192 24.234 18 24.2402ZM21.2402 18.75C21.1698 21.3878 20.7263 23.0384 20.1618 24.0767C22.4335 23.2684 24.1184 21.2223 24.4048 18.75H21.2402ZM20.1617 11.9233C20.7263 12.9616 21.1698 14.6122 21.2402 17.25H24.4048C24.1184 14.7777 22.4335 12.7316 20.1617 11.9233Z" fill="#929292"/>
</g>
<defs>
<clipPath id="clip0_2134_34">
<rect width="16" height="16" fill="white" transform="translate(10 10)"/>
</clipPath>
</defs>
</svg>
