<svg width="36" height="36" viewBox="0 0 36 36" fill="none" xmlns="http://www.w3.org/2000/svg">
<rect width="36" height="36" rx="8" fill="white" fill-opacity="0.11"/>
<g clip-path="url(#clip0_2134_33)">
<path fill-rule="evenodd" clip-rule="evenodd" d="M18 14.6356L16.6491 12.8958C16.0706 12.1507 15.2154 11.725 14.4 11.725C13.0187 11.725 11.7143 12.9332 11.7143 14.8257C11.7143 15.9948 12.1918 17.2999 13.2869 18.9001C14.377 20.4929 15.9739 22.2283 18.0044 24.2496C20.0304 22.2279 21.6242 20.4932 22.7128 18.9016C23.8082 17.3 24.2857 15.9948 24.2857 14.8257C24.2857 12.9332 22.9813 11.725 21.6 11.725C20.7846 11.725 19.9294 12.1507 19.3509 12.8958L18 14.6356ZM16.84 25.517C12.72 21.4196 10 18.1422 10 14.8257C10 12.1233 11.936 10 14.4 10C15.2211 10 16.0227 10.2473 16.7211 10.6806C17.2067 10.9819 17.6424 11.3732 18 11.8337C18.3576 11.3732 18.7933 10.9819 19.2789 10.6806C19.9773 10.2473 20.7789 10 21.6 10C24.064 10 26 12.1233 26 14.8257C26 18.1422 23.28 21.4196 19.16 25.5257C18.5172 26.1627 17.4804 26.1564 16.84 25.517Z" fill="#929292"/>
</g>
<defs>
<clipPath id="clip0_2134_33">
<rect width="16" height="16" fill="white" transform="translate(10 10)"/>
</clipPath>
</defs>
</svg>
