<svg width="40" height="40" viewBox="0 0 40 40" fill="none" xmlns="http://www.w3.org/2000/svg">
<rect x="0.5" y="0.5" width="39" height="39" rx="4.5" fill="#4C4C4C" stroke="#8D8D8D"/>
<path d="M25.4282 10H14.4835C11.4598 10 9 12.4606 9 15.4851V25.5009C9 28.5254 11.4598 30.986 14.4835 30.986H25.4282C28.4518 30.986 30.9117 28.5254 30.9117 25.5009V15.4851C30.9117 12.4606 28.4518 10 25.4282 10ZM10.9344 15.4851C10.9344 13.5278 12.5268 11.935 14.4835 11.935H25.4282C27.3849 11.935 28.9773 13.5278 28.9773 15.4851V25.5009C28.9773 27.4581 27.3849 29.051 25.4282 29.051H14.4835C12.5268 29.051 10.9344 27.4581 10.9344 25.5009V15.4851Z" fill="white" fill-opacity="0.75"/>
<path d="M19.9559 25.5938C22.7676 25.5938 25.0564 23.3056 25.0564 20.4917C25.0564 17.6779 22.7689 15.3896 19.9559 15.3896C17.1429 15.3896 14.8553 17.6779 14.8553 20.4917C14.8553 23.3056 17.1429 25.5938 19.9559 25.5938ZM19.9559 17.3259C21.7019 17.3259 23.122 18.7464 23.122 20.493C23.122 22.2395 21.7019 23.6601 19.9559 23.6601C18.2098 23.6601 16.7897 22.2395 16.7897 20.493C16.7897 18.7464 18.2098 17.3259 19.9559 17.3259Z" fill="white" fill-opacity="0.75"/>
<path d="M25.5286 16.2142C26.2857 16.2142 26.9029 15.5982 26.9029 14.8395C26.9029 14.0809 26.287 13.4648 25.5286 13.4648C24.7702 13.4648 24.1543 14.0809 24.1543 14.8395C24.1543 15.5982 24.7702 16.2142 25.5286 16.2142Z" fill="white" fill-opacity="0.75"/>
</svg>
