<svg width="18" height="22" viewBox="0 0 18 22" fill="none" xmlns="http://www.w3.org/2000/svg">
<path fill-rule="evenodd" clip-rule="evenodd" d="M15.2557 3.28932C15.5981 1.58764 14.2887 0 12.5428 0H5.45915C3.71329 0 2.40387 1.58764 2.74626 3.28932L3.19847 5.53679C3.33181 6.1995 3.21498 6.88782 2.87026 7.47035L0.386137 11.6682C-0.698694 13.5015 0.631106 15.8125 2.77082 15.8125L7.68104 15.8125L7.91689 20.9698C7.94324 21.5462 8.42103 22 9.00148 22C9.58193 22 10.0597 21.5462 10.0861 20.9698L10.3219 15.8125L15.2292 15.8125C17.369 15.8125 18.6988 13.5013 17.6137 11.668L15.1312 7.47361C14.7864 6.89104 14.6695 6.20264 14.8029 5.53985L15.2557 3.28932ZM5.45915 2.0625H12.5428C12.9793 2.0625 13.3066 2.45941 13.221 2.88483L12.7682 5.13536C12.5348 6.29524 12.7393 7.49994 13.3428 8.51945L15.8253 12.7139C16.0966 13.1722 15.7641 13.75 15.2292 13.75L2.77082 13.75C2.23589 13.75 1.90344 13.1722 2.17465 12.7139L4.65877 8.51603C5.26203 7.4966 5.46649 6.29205 5.23314 5.1323L4.78093 2.88483C4.69533 2.45941 5.02269 2.0625 5.45915 2.0625Z" fill="#E0F5FF"/>
</svg>
