<svg width="40" height="40" viewBox="0 0 40 40" fill="none" xmlns="http://www.w3.org/2000/svg">
<rect x="0.5" y="0.5" width="39" height="39" rx="4.5" fill="#4C4C4C" stroke="#8D8D8D"/>
<path fill-rule="evenodd" clip-rule="evenodd" d="M19.2719 23.3941C19.2559 23.4486 19.2408 23.4949 19.2286 23.5411C18.5171 26.275 18.4379 26.8823 17.7066 28.1522C17.3579 28.7557 16.965 29.3279 16.5305 29.875C16.4815 29.9369 16.4353 30.0164 16.3373 29.997C16.2299 29.9748 16.2214 29.8796 16.2101 29.7955C16.0932 28.9646 16.0282 28.1319 16.0565 27.2926C16.0932 26.2002 16.2308 25.8249 17.667 19.9023C17.6878 19.8117 17.6642 19.7368 17.634 19.6555C17.2901 18.746 17.2222 17.8227 17.5228 16.8873C18.1731 14.8669 20.5083 14.7125 20.9164 16.379C21.168 17.4095 20.5027 18.759 19.9919 20.7535C19.5688 22.3987 21.544 23.5688 23.2318 22.3673C24.7886 21.26 25.3927 18.6055 25.2777 16.7237C25.0516 12.9722 20.857 12.1616 18.1966 13.3696C15.1461 14.7532 14.4526 18.4613 15.8303 20.1564C16.0047 20.3718 16.3336 20.504 16.2761 20.7221C16.1875 21.0613 16.1093 21.4033 16.0131 21.7406C15.9415 21.992 15.5335 22.0835 15.2743 21.98C14.7664 21.7785 14.3432 21.4615 14.0002 21.0437C12.8307 19.6231 12.4962 16.8134 14.0426 14.4344C15.7559 11.7993 18.943 10.7327 21.8531 11.0562C25.3286 11.4434 27.5253 13.7726 27.9362 16.415C28.1237 17.6184 27.989 20.5862 26.2663 22.6843C24.2845 25.0947 21.0719 25.2546 19.5895 23.7749C19.4755 23.6612 19.3841 23.5291 19.2719 23.3932V23.3941Z" fill="white" fill-opacity="0.75"/>
</svg>
