<svg width="40" height="40" viewBox="0 0 40 40" fill="none" xmlns="http://www.w3.org/2000/svg">
<rect x="0.5" y="0.5" width="39" height="39" rx="4.5" fill="#4C4C4C" stroke="#8D8D8D"/>
<path d="M29.8381 17.2169C29.7214 16.1965 29.4702 15.0685 28.546 14.4758C27.8301 14.0161 26.8891 13.9991 26.0107 14C24.1538 14 22.2959 14.0029 20.439 14.0038C18.653 14.0057 16.867 14.0066 15.0809 14.0085C14.3348 14.0085 13.6096 13.9566 12.9166 14.2492C12.3216 14.5003 11.8559 14.9779 11.5756 15.5093C11.1869 16.2484 11.1056 17.0857 11.0587 17.9031C10.9722 19.3916 10.9816 20.8839 11.0848 22.3715C11.1608 23.457 11.3536 24.6567 12.28 25.3486C13.1011 25.9612 14.2598 25.9914 15.3248 25.9924C18.7051 25.9952 22.0865 25.998 25.4678 25.9999C25.9013 26.0009 26.3535 25.9933 26.7954 25.9499C27.6644 25.8649 28.4928 25.6394 29.0513 25.056C29.6151 24.468 29.7599 23.6496 29.8454 22.8747C30.0538 20.9944 30.0517 19.0962 29.8381 17.2169ZM18.4842 22.6358V17.3641L23.5234 19.9995L18.4842 22.6358Z" fill="white"/>
</svg>
